<?xml version="1.0" encoding="utf-8" ?>
<svg xmlns="http://www.w3.org/2000/svg" xmlns:xlink="http://www.w3.org/1999/xlink" width="512" height="512">
	<defs>
		<linearGradient id="gradient_0" gradientUnits="userSpaceOnUse" x1="570.10529" y1="301.81476" x2="83.284164" y2="351.90222">
			<stop offset="0" stop-color="#FFB85F"/>
			<stop offset="1" stop-color="#FFE374"/>
		</linearGradient>
	</defs>
	<path fill="url(#gradient_0)" transform="scale(0.8 0.8)" d="M195.837 122.638L506.215 122.809C527.169 122.832 547.482 126.866 554.664 150.428C556.122 155.209 556.181 159.061 556.19 164.103L556.257 327.262C556.257 331.484 556.476 335.83 556.069 340.028C554.551 355.705 541.817 369.916 526.297 372.952C521.289 373.931 516.286 373.745 511.211 373.747L493.121 373.723L493.189 430.786C493.202 435.06 493.559 439.734 492.367 443.869C484.879 469.848 466.082 476.35 442.261 476.361L365.469 476.368L225.156 476.271C224.182 476.269 221.082 475.973 220.403 476.307C219.194 476.903 181.571 523.689 177.261 528.89L161.741 548.626C158.645 552.596 150.982 566 144.309 563.619L143.906 563.463C137.295 561.091 138.129 556.115 138.107 550.291L137.386 476.455C123.684 477.789 107.125 470.47 99.2764 459.336L98.0024 457.523C90.9398 447.039 91.2958 434.299 91.2867 422.236L91.3341 247.849C91.4371 221.278 103.923 200.78 132.91 198.033C139.669 197.393 146.755 197.79 153.55 197.793L153.487 176.607C153.491 170.778 153.064 164.547 153.711 158.766C156.191 136.628 174.454 123.697 195.837 122.638ZM154.424 211.716C129.151 211.59 106.106 211.764 105.931 244.062L105.921 417.922C105.92 424.661 105.278 432.457 106.464 439.073C108.663 451.346 118.797 462.284 131.719 462.305C141.316 462.321 150.597 459.63 151.315 472.005L151.835 537.677C152.384 536.783 155.915 533.798 157.202 532.212L206.88 469.983C211.665 464.299 212.569 462.202 220.124 462.18L355.781 462.165L440.941 462.171C469.621 462.147 478.934 451.63 478.993 424.406L479.026 250.187C479.015 231.208 475.25 216.73 453.874 212.391L452.669 212.146C449.45 211.5 445.847 211.744 442.572 211.741L154.424 211.716ZM213.945 137.248L189.652 137.652C167.188 140.257 167.815 159.065 167.827 176.198L167.939 197.799L423.779 197.809C449.654 197.795 476.572 194.596 489.696 223.75C491.828 228.485 492.981 233.137 493.07 238.306L493.113 352.931C493.112 355.049 492.76 357.925 493.29 359.922L496.178 360.121L519.758 359.778C531.132 358.492 541.402 348.083 541.865 336.533L541.937 165.014C541.907 154.802 537.715 145.264 528.245 140.194L523.335 138.033C521.254 137.284 518.538 137.326 516.355 137.273L218.933 137.245C217.44 137.246 215.387 137.513 213.945 137.248Z"/>
	<path fill="#FFDB70" transform="scale(0.8 0.8)" d="M159.315 362.632L265.153 362.574C269.949 362.576 274.909 362.337 279.688 362.716C288.068 363.379 289.221 375.492 278.911 376.464L164.395 376.53C157.571 376.541 154.772 377.36 152.651 369.615C153.363 366.1 155.579 363.22 159.315 362.632Z"/>
	<path fill="#FFDB70" transform="scale(0.8 0.8)" d="M238.036 304.395L405.556 304.376C411.848 304.377 418.601 303.866 424.823 304.482C432.15 305.207 431.893 317.439 424.507 318.553C422.257 318.893 419.617 318.611 417.319 318.604L344.469 318.556L168.982 318.525C165.678 318.521 162.285 318.666 158.993 318.425C150.866 317.831 150.257 305.886 157.744 304.664C160.501 304.214 163.682 304.448 166.479 304.444L238.036 304.395Z"/>
</svg>
