<?xml version="1.0" encoding="utf-8" ?>
<svg xmlns="http://www.w3.org/2000/svg" xmlns:xlink="http://www.w3.org/1999/xlink" width="512" height="512">
	<path fill="#FFDB70" transform="scale(0.8 0.8)" d="M162.358 135.915L162.627 135.964C166.875 136.623 168.967 138.842 169.037 142.936L169.046 149.62C169.044 153.304 169.646 176.733 168.449 178.496C167.446 179.973 165.495 180.356 163.895 180.784C162.605 180.721 161.209 180.775 160.04 180.159L159.688 179.962C158.559 179.343 157.725 178.891 157.176 177.675L156.87 176.973C155.967 174.807 156.537 170.645 156.535 168.207L156.536 149.074C156.548 142.726 155.394 138.565 162.358 135.915Z"/>
	<path fill="#FFDB70" transform="scale(0.8 0.8)" d="M236.234 136.299C247.577 134.796 245.015 146.362 245.016 153.392C245.017 157.135 246.168 174.64 244.372 176.906L244.132 177.188C242.964 178.575 242.013 179.349 240.416 180.204C227.936 182.779 231.814 161.871 231.788 154.202L231.728 145.933C231.59 141.042 231.322 138.673 236.234 136.299Z"/>
	<path fill="#FFDB70" transform="scale(0.8 0.8)" d="M199.436 135.684L201.719 135.669C203.485 135.872 206.027 137.224 206.946 138.802C207.631 139.977 207.844 173.61 207.115 175.963L206.903 176.562C206.009 179.118 203.951 180.032 201.445 180.613C192.97 180.976 193.64 176.229 193.658 169.452L194.358 142.542C194.461 138.581 195.493 137.014 199.436 135.684Z"/>
	<path fill="#FFBB5C" transform="scale(0.8 0.8)" d="M442.972 148.418L466.042 148.358C471.515 148.341 482.761 146.887 482.822 155.446C482.889 164.725 470.423 162.279 464.551 162.274L354.219 162.285L330.823 162.308C327.148 162.311 322.351 162.881 318.822 162.023C313.814 157.677 313.167 149.409 319.646 148.64C323.924 148.132 328.574 148.452 332.89 148.448L442.972 148.418Z"/>
	<defs>
		<linearGradient id="gradient_0" gradientUnits="userSpaceOnUse" x1="536.34241" y1="301.42715" x2="107.21185" y2="342.7709">
			<stop offset="0" stop-color="#FFAA56"/>
			<stop offset="1" stop-color="#FFE16D"/>
		</linearGradient>
	</defs>
	<path fill="url(#gradient_0)" transform="scale(0.8 0.8)" d="M151.19 96.9434L459.548 97.0822C467.183 97.558 469.175 104.895 462.903 109.673L462.5 109.97C461.524 110.698 460.413 110.865 459.219 110.894L164.989 110.849C158.63 110.825 152.037 110.405 145.715 110.933C132.941 112.002 133.147 120.308 133.284 131.096L133.611 190.982C133.667 192.07 133.733 193.577 134.36 194.49L135.242 195.661C139.261 200.759 145.497 199.46 151.304 199.313L223.37 199.214C227.23 199.17 230.98 198.519 234.837 198.492L488.321 198.529C496.247 198.545 503.263 199.288 505.91 189.673L506.057 189.124C506.887 186.115 506.49 182.727 506.47 179.622L506.296 125.32C505.478 109.328 495.022 114.047 487.012 109.963C478.856 105.805 487.53 87.1067 508.287 102.996C520.248 112.153 520.282 124.284 520.297 137.777L520.298 179.456C520.295 182.871 520.569 186.55 520.037 189.917C518.265 201.118 509.306 211 497.686 212.099L472.875 212.555C473.632 218.481 473.259 224.776 473.291 230.755L487.211 230.879C489.911 230.884 492.728 230.713 495.364 231.372L495.938 231.524C507.23 234.408 515.538 243.247 519.129 254.262C521.396 261.216 520.316 268.921 520.307 276.132L520.268 336.274C520.258 344.78 521.154 351.84 517.17 359.609C510.524 372.567 501.234 376.508 487.798 376.536L474.959 376.533L474.915 393.891C493.255 395.327 510.484 390.192 518.889 413.362C520.877 419.014 520.291 424.991 520.297 430.872L520.3 470.404C520.3 473.72 520.495 477.145 520.198 480.445C519.036 493.355 508.706 504.295 496.08 506.584L495.469 506.692C491.675 507.387 487.312 506.785 483.45 506.766L343.138 506.654C337.69 506.656 332.153 506.436 326.725 506.86C324.71 524.666 337.96 512.365 343.281 530.127C343.756 531.713 343.94 533.243 344.533 534.827L457.031 534.836C462.142 535.338 462.666 545.169 458.371 547.365C456.413 548.366 452.656 547.908 450.443 547.915L357.261 547.981C353.306 547.986 347.719 547.384 343.981 548.612C342.945 548.953 341.294 552.723 340.318 553.906C329.136 567.457 310.154 567.767 299.263 554.058L296.1 549.757C293.978 546.805 289.636 547.942 286.318 547.933L188.379 547.972C186.286 547.997 184.18 548.248 182.092 548.208C175.956 548.092 175.167 535.961 181.25 535.118C184.466 534.672 188.056 534.951 191.315 534.947L288.868 534.975C298.654 534.968 293.29 533.225 297.821 524.701C300.423 519.807 307.648 517.62 312.513 516.097L312.18 506.646L152.58 506.691C149.39 506.676 145.831 506.924 142.794 505.832L136.875 503.741C125.912 498.971 119.787 487.458 119.373 475.828L119.233 444.976C119.174 429.699 115.645 412.747 128.629 401.559C139.422 392.259 152.667 393.749 165.816 394.531L165.88 376.518C158.726 375.815 150.711 377.75 143.761 375.449C120.198 367.65 119.201 354.825 119.202 332.165L119.245 276.313C119.247 271.239 118.894 265.9 119.557 260.876C122.766 236.55 145.261 228.176 166.748 231.406L167.226 231.482C167.553 229.546 167.358 227.341 167.369 225.375L167.434 212.44C151.395 212.413 126.713 215.247 121.124 195.348L120.774 194.207C118.499 188.34 119.249 180.781 119.237 174.638L119.237 134.08C119.263 125.216 119.347 115.495 125.291 108.224C129.922 102.559 138.102 97.8092 145.469 97.1694L151.19 96.9434ZM141.153 277.46L132.929 277.808C133.687 284.442 133.341 291.522 133.356 298.215L133.438 343.855C133.569 355.874 136.925 361.899 149.531 362.561L478.004 362.758C484.079 362.766 490.741 363.834 496.576 361.701C502.104 358.927 506.193 354.606 506.426 348.238L506.38 284.006C506.377 282.066 506.722 279.397 506.226 277.584L141.153 277.46ZM151.436 407.631C144.846 408.023 137.904 409.473 134.36 415.625L134.151 415.982C132.527 418.919 133.388 424.143 133.383 427.37L133.373 443.848C133.375 454.336 132.913 465.038 133.565 475.495C134.311 487.44 139.733 493.226 151.399 493.47L479.69 493.47C482.294 493.455 485.944 493.825 488.38 492.894C504.289 492.051 506.528 484.974 506.445 470.785L506.484 430.428C506.486 422.562 507.875 409.847 496.693 407.765C492.2 406.928 471.265 407.297 467.099 407.804C457.427 408.981 447.203 408.337 437.462 408.343L253.351 408.341C249.72 408.306 246.199 407.658 242.572 407.603L151.436 407.631ZM150.945 244.509C148.891 244.656 146.857 244.753 144.844 245.202L144.449 245.282C137.509 246.792 133.667 258.505 132.401 264.415L488.594 263.747L501.018 263.76C507.756 263.757 509.898 263.552 505.028 254.944L503.917 253.201C498.247 244.463 489.973 244.428 480.817 244.425L150.945 244.509ZM236.994 212.297L179.742 213.235L180.001 230.786L403.359 230.942L443.808 230.912C446.926 230.908 458.374 231.471 460.47 230.5L460.689 212.556L236.994 212.297ZM180.008 375.419L180.101 394.144L460.411 394.181L461.505 393.98L461.514 375.629L180.008 375.419ZM318.463 527.265C301.134 530.001 305.173 551.983 321.789 551.258C336.019 547.669 334.482 526.176 318.463 527.265Z"/>
	<path fill="#FFDB70" transform="scale(0.8 0.8)" d="M162.765 425.659C171.487 425.147 169.09 435.312 169.042 441.036L169.111 464.446C169.214 468.902 167.733 470.067 163.373 471.416L161.875 471.268C154.066 469.68 156.514 457.792 156.526 452.249L156.547 437.085C156.532 430.135 155.047 427.735 162.765 425.659Z"/>
	<path fill="#FFDB70" transform="scale(0.8 0.8)" d="M198.9 425.345L200.674 425.281C205.401 425.247 206.867 426.253 207.233 430.991C207.881 439.366 207.433 448.131 207.452 456.545L207.463 464.079C207.465 467.799 206.948 469.154 203.148 470.518C200.545 470.779 196.657 471.092 194.998 468.573C193.954 466.988 193.979 431.403 194.707 428.168C195.915 426.425 196.879 425.956 198.9 425.345Z"/>
	<path fill="#FFDB70" transform="scale(0.8 0.8)" d="M238.355 425.106C247.291 426.092 244.999 436.767 245.009 443.11L244.983 465.981C244.94 467.602 244.976 468.729 243.71 469.885L243.402 470.156C241.784 471.595 240.284 471.764 238.178 471.969C229.769 470.166 231.712 465.049 231.733 458.03L231.663 432.295C231.559 427.294 233.182 425.769 238.355 425.106Z"/>
	<path fill="#FFBB5C" transform="scale(0.8 0.8)" d="M335.11 443.879L461.362 443.882C466.173 443.893 471.398 443.513 476.159 444.09C483.002 444.918 482.997 452.091 479.03 456.094C477.019 458.122 474.389 457.479 471.773 457.477L461.406 457.432L336.422 457.424C331.201 457.421 325.738 457.736 320.54 457.287C314.016 456.725 309.163 443.979 324.354 443.904L335.11 443.879Z"/>
	<path fill="#FFDB70" transform="scale(0.8 0.8)" d="M163.696 296.657C170.497 297.045 169.201 301.939 169.127 307.268L169.098 322.672C169.155 329.297 172.892 341.767 162.712 342.601C154.401 339.651 156.577 332.743 156.593 325.762C156.612 318.107 156.151 310.178 156.683 302.558C156.974 298.382 159.752 297.203 163.696 296.657Z"/>
	<path fill="#FFDB70" transform="scale(0.8 0.8)" d="M200.162 296.347C209.085 296.078 207.44 301.558 207.452 308.071C207.459 311.997 208.069 337.109 207.104 338.594C205.852 340.522 204.074 341.082 201.952 341.528C193.861 342.1 194.34 336.714 194.34 330.126L194.353 318.368C194.37 310.577 191.203 298.39 200.162 296.347Z"/>
	<path fill="#FFDB70" transform="scale(0.8 0.8)" d="M238.038 295.689C247.123 296.631 245.053 305.419 245.027 311.853L244.998 328.81C244.993 331.176 245.403 334.718 244.613 336.931L243.745 339.219C242.819 341.119 241.42 342.01 239.459 342.625C229.743 342.184 231.768 335.244 231.758 327.998C231.752 323.453 230.941 301.287 232.436 298.866C233.693 296.83 235.828 296.175 238.038 295.689Z"/>
	<path fill="#FFBB5C" transform="scale(0.8 0.8)" d="M355.499 313.67L461.258 313.675C465.792 313.679 470.569 313.388 475.079 313.774C485.147 314.637 483.55 325.64 478.306 326.677C474.899 327.351 470.526 326.858 467.03 326.863L441.719 326.866L332.208 326.906C328.601 326.92 324.898 327.212 321.306 327.045C314.775 326.741 313.777 315.303 320.027 314.012C323.769 313.238 328.383 313.696 332.217 313.689L355.499 313.67Z"/>
</svg>
