<?xml version="1.0" encoding="utf-8" ?>
<svg xmlns="http://www.w3.org/2000/svg" xmlns:xlink="http://www.w3.org/1999/xlink" width="512" height="512">
	<defs>
		<linearGradient id="gradient_0" gradientUnits="userSpaceOnUse" x1="583.9809" y1="339.01801" x2="86.80938" y2="288.69733">
			<stop offset="0" stop-color="#FFB962"/>
			<stop offset="1" stop-color="#FFE277"/>
		</linearGradient>
	</defs>
	<path fill="url(#gradient_0)" transform="scale(0.8 0.8)" d="M144.528 116.382L489.993 116.255C494.1 116.256 498.42 115.989 502.5 116.445C517.134 118.081 531.175 130.01 532.329 145.222L532.567 397.798C537.906 401.192 542.545 406.04 547.106 410.4L562.232 424.71C569.682 431.679 571.592 429.423 571.468 439.577L571.403 465.481C571.392 468.864 571.651 472.595 571.006 475.914C567.348 494.746 552.527 505.614 534.11 505.657L498.511 505.665C494.827 505.466 491.031 505.647 487.337 505.653L118.147 505.636C99.3791 505.617 82.2943 503.393 74.1743 483.686L73.9694 483.181C71.9571 478.317 71.2659 472.783 71.2457 467.56L71.242 444.097C71.2711 431.848 69.3075 435.327 77.5518 427.564L100.866 405.283C109.415 397.15 111.279 400.117 110.459 388.297L109.77 154.219C110.114 131.362 122.014 117.395 144.528 116.382ZM142.714 129.188C134.693 129.802 124.27 136.912 123.511 145.615C123.029 151.153 123.219 156.812 123.221 162.368L123.274 378.919C123.276 383.815 123.016 388.879 123.392 393.756L500.274 393.752L519.632 393.653L519.654 155.704C519.645 148.562 520.19 142.853 514.703 137.281C508.079 130.558 499.674 129.452 490.714 129.447L142.714 129.188ZM207.98 438.443L96.9261 438.443C92.859 438.442 88.3546 438.067 84.3358 438.61L84.7144 467.131C84.7394 472.106 84.7558 476.047 87.3086 480.423C90.7361 486.3 98.0413 492.46 105.223 492.751L468.281 492.779L530.45 492.831C555.218 493.045 558.471 480.844 558.515 458.769L558.593 439.376L374.435 438.647L374.806 448.701C375.086 470.7 366.185 470.753 347.656 470.756L294.422 470.73C281.876 470.714 267.839 472.081 267.034 454.06L267.783 438.49L207.98 438.443ZM144.565 406.489L128.121 406.518C117.036 406.559 120.065 405.842 112.608 412.324L103.711 419.494C101.579 421.251 100.181 423.44 98.1595 425.119L497.031 425.356L526.966 425.347C532.17 425.341 538.092 425.879 543.2 424.929C541.132 422.499 538.473 420.556 536.142 418.38L525.281 407.639C523.111 405.412 516.495 406.547 513.621 406.545L144.565 406.489ZM321.778 438.443L296.489 438.439C290.803 438.438 285.014 438.208 279.355 438.825L280.706 458.023L320.587 457.99L345.449 457.972C349.999 457.966 355.646 458.587 360.051 457.476C362.235 451.073 362.167 445.075 362.488 438.43L321.778 438.443Z"/>
	<defs>
		<linearGradient id="gradient_1" gradientUnits="userSpaceOnUse" x1="515.07819" y1="218.00233" x2="126.22537" y2="305.71445">
			<stop offset="0" stop-color="#FFBC64"/>
			<stop offset="1" stop-color="#FFE074"/>
		</linearGradient>
	</defs>
	<path fill="url(#gradient_1)" transform="scale(0.8 0.8)" d="M151.266 146.703C153.953 146.928 156.785 147.108 159.488 147.116L486.671 147.146C492.899 147.144 497.302 146.001 500.805 152.334L501.329 153.269C502.006 154.744 501.984 157.217 502.029 158.845L502.154 350.349C502.157 353.739 502.803 371.973 501.919 373.438C499.878 376.818 494.633 376.516 491.251 376.583L321.388 375.772L149.845 376.293C139.937 376.188 140.219 371.534 140.2 363.589L140.298 158.876C140.34 156.795 140.391 154.652 141.355 152.757L142.621 150.469C143.841 148.749 145.871 147.317 147.969 146.955L151.266 146.703ZM153.565 159.844L153.213 342.182C153.217 348.824 152.383 356.77 153.901 363.292L488.053 363.143L488.555 160.338L153.565 159.844Z"/>
	<path fill="#FFDB70" transform="scale(0.8 0.8)" d="M205.484 189.709L207.031 189.998C221.832 194.077 196.951 215.046 191.033 217.532C187.633 217.664 185.651 213.994 184.346 211.325C186.299 206.154 199.585 191.236 205.484 189.709Z"/>
	<path fill="#FFDB70" transform="scale(0.8 0.8)" d="M251.772 187.523C257.219 187.276 261.209 190.125 258.641 195.978C257.659 198.214 255.158 200.31 253.437 202.028L206.406 247.871C202.11 252.136 197.276 260.093 191.54 262.119C186.655 261.67 181.61 257.802 184.53 252.759C186.622 249.145 190.41 246.283 193.372 243.385L238.161 198.766C242.215 194.801 246.071 189.124 251.772 187.523Z"/>
	<path fill="#FFBB5C" transform="scale(0.8 0.8)" d="M314.058 181.928L314.244 181.949C315.139 182.04 316.07 182.077 316.875 182.528C325.531 187.374 313.465 197.534 310.367 200.679L248.895 262.858C244.465 267.15 236.5 277.335 230.822 278.828C216.212 275.23 229.634 265.119 233.923 260.587L290.636 202.202C295.77 196.811 306.655 183.404 314.058 181.928Z"/>
</svg>
