<?xml version="1.0" encoding="utf-8" ?>
<svg xmlns="http://www.w3.org/2000/svg" xmlns:xlink="http://www.w3.org/1999/xlink" width="512" height="512">
	<defs>
		<linearGradient id="gradient_0" gradientUnits="userSpaceOnUse" x1="544.85413" y1="308.9675" x2="102.63485" y2="370.89441">
			<stop offset="0" stop-color="#FFB35B"/>
			<stop offset="1" stop-color="#FFE576"/>
		</linearGradient>
	</defs>
	<path fill="url(#gradient_0)" transform="scale(0.8 0.8)" d="M250.698 88.919C257.708 88.6021 265.059 88.2743 272.04 88.7838C355.86 94.9001 422.671 157.363 432.817 240.195C438.339 285.282 424.57 334.196 396.772 369.822C404.348 375.3 410.88 382.151 417.515 388.701C435.097 375.042 446.041 379.927 459.488 393.359L556.081 488.578C564.377 497.097 574.541 505.908 574.795 518.75C574.979 528.079 571.897 535.069 565.526 541.783L549.464 557.529C545.098 561.751 540.467 567.183 535.24 570.235C521.144 578.465 508.278 574.099 497.165 564.305L458.984 527.131L395.751 464.148C387.587 455.862 374.992 446.51 377.372 433.268L377.459 432.812C378.467 426.94 381.542 422.619 384.944 417.918C379.304 411.292 373.963 404.335 367.385 398.604L356.098 406.766C330.954 423.307 308.754 431.425 278.878 434.637C272.577 435.315 265.97 435.009 259.639 435.005C229.683 434.987 200.097 428.383 174.203 413.008C124.96 383.77 93.5795 330.012 88.5363 273.496C84.4404 227.595 103.116 180.749 132.482 146.082C136.698 141.105 141.566 136.907 146.389 132.551C176.089 105.724 211.358 92.1271 250.698 88.919ZM258.409 103.354C254.505 103.388 250.599 103.333 246.733 103.955L235.122 105.611C201.212 111.405 171.825 127.21 147.493 151.735C124.932 174.476 112.902 201.265 106.853 232.812C94.9617 294.827 122.966 358.52 174.003 395.135C200.437 414.101 232.387 420.805 264.355 420.612C305.237 418.827 345.735 403.046 373.8 372.51C396.218 348.119 412.776 317.859 417.263 284.761C429.771 192.502 364.912 110.468 271.41 103.502C267.12 103.182 262.714 103.333 258.409 103.354ZM434.111 395.156C429.496 398.507 425.64 403.499 421.576 407.52L412.608 415.643C404.125 423.721 407.579 417.929 401.148 420.503L400.718 420.666C396.197 422.447 391.898 427.609 390.08 432.007L389.711 432.968C393.36 440.217 400.4 445.965 405.907 451.839L495.615 541.155C500.781 546.349 508.473 556.385 515.556 558.67L516.584 558.994C518.923 559.511 521.56 559.647 523.852 558.873L524.383 558.699C530.176 556.736 533.63 551.301 537.745 547.163L552.094 532.937C555.276 529.51 559.197 525.549 560.09 520.781L560.164 520.449C561.78 512.122 544.627 498.72 539.592 493.791L467.396 422.243C463.255 418.089 440.542 392.173 434.111 395.156ZM388.191 380.469C384.993 383.161 381.55 385.949 378.998 389.284L396.719 407.761L397.956 407.255C400.946 405.184 405.985 402.265 407.783 399.106C400.34 393.12 395.728 386.164 389.066 380.325L388.191 380.469Z"/>
	<defs>
		<linearGradient id="gradient_1" gradientUnits="userSpaceOnUse" x1="403.15503" y1="245.16039" x2="119.79044" y2="279.07565">
			<stop offset="0" stop-color="#FFBE65"/>
			<stop offset="1" stop-color="#FFE770"/>
		</linearGradient>
	</defs>
	<path fill="url(#gradient_1)" transform="scale(0.8 0.8)" d="M248.402 118.556C255.834 118.159 263.793 117.975 271.201 118.581C346.768 124.766 404.836 185.329 404.734 262.015C404.637 334.744 346.903 399.823 273.986 406.299L266.073 406.925C188.752 411.183 122.608 348.394 118.596 271.75C116.6 233.625 127.754 194.775 153.622 166.163C179.048 138.041 210.045 120.475 248.402 118.556ZM250.483 132.931C243.061 133.529 235.802 134.351 228.543 136.094C156.555 153.374 117.224 233.432 139.531 303.065C157.815 360.14 213.402 397.648 272.867 391.165C288.589 389.224 304.745 385.251 318.74 377.656C364.608 352.765 395.382 300.371 389.028 247.779L388.818 246.481C387.613 240.051 386.793 233.688 384.99 227.362C369.988 174.747 324.162 137.795 270 132.93C263.644 132.359 256.87 132.642 250.483 132.931Z"/>
	<path fill="#FFDB70" transform="scale(0.8 0.8)" d="M251.893 149.501C257.742 148.257 265.217 152.261 262.952 159.213L262.84 159.531C260.806 165.542 253.106 164.482 248.159 165.142C204.407 170.978 167.905 209.285 164.737 253.407L164.397 261.25C164.326 263.387 164.428 265.911 163.304 267.803L163.105 268.125C162.296 269.491 161.358 270.421 160.213 271.497C155.593 273.974 150.449 270.434 149.74 265.352C149.107 260.807 149.799 255.58 150.349 251.059C156.893 197.343 197.328 155.396 251.893 149.501Z"/>
</svg>
