<?xml version="1.0" encoding="utf-8" ?>
<svg xmlns="http://www.w3.org/2000/svg" xmlns:xlink="http://www.w3.org/1999/xlink" width="512" height="512">
	<path fill="#FF9500" d="M0 0L0 512L512 512L512 0L0 0Z"/>
	<path fill="#FFDB70" d="M260.799 434.199C237.892 436.529 218.628 422.548 199.854 411.619L105.247 357.225C89.801 348.12 77.8646 336.197 75.8944 317.122C75.5846 314.122 75.7011 310.994 75.6996 307.979L75.6606 205.433C75.6413 202.485 75.5671 199.602 76.0794 196.683C79.8896 174.975 90.8973 165.536 108.267 155.313L211.947 93.3406C224.504 85.6473 236.226 76.7484 251.296 75.2201C269.908 73.723 282.223 82.9917 297.383 91.9737L408.122 157.203C411.732 159.337 415.429 161.447 418.661 164.136C431.22 174.586 436.477 190.074 436.491 205.913L436.478 306.788C436.49 339.075 422.301 349.035 395.316 363.924L361.006 383.007L308.325 413.73C293.326 422.338 278.552 432.718 260.799 434.199ZM255.535 115.17C251.852 116.812 248.343 119.291 244.888 121.379L124.164 192.73L252.288 269.041C252.967 269.478 255.509 271.367 256.047 271.232L256.291 271.17L387.674 192.663C384.61 191.051 381.723 189.068 378.782 187.244L323.092 153.914L258.328 115.995C257.383 115.5 256.629 114.985 255.535 115.17ZM116.046 235.32L115.99 302.889C116.005 311.222 115.13 317.461 122.774 322.632C126.733 325.311 131.106 327.521 135.249 329.917L233.539 387.67C253.467 399.326 256.803 400.009 276.218 389.221L375.415 330.778C382.855 326.519 393.298 322.814 395.336 313.579C396.338 305.861 395.98 297.989 395.99 290.22L396.118 235.504C394.587 236.657 392.78 237.508 391.128 238.498L260.524 315.509C259.043 316.337 257.261 317.541 255.593 317.875L116.046 235.32Z"/>
</svg>
